<svg height="512" viewBox="0 0 512 512" width="512" xmlns="http://www.w3.org/2000/svg"><g><g><path d="m336 160v88l-40 96v120h-176v-120l-40-96v-88z" fill="#ff9811"/><path d="m296 464v16a16 16 0 0 1 -16 16h-144a16 16 0 0 1 -16-16v-16z" fill="#787680"/><path d="m80 16h256v32h-256z" fill="#787680"/><path d="m80 48h256v48h-256z" fill="#ff9811"/><path d="m64 96h288v64h-288z" fill="#787680"/><path d="m352 112h40v32h-40z" fill="#2d2d30"/><path d="m400 320h-8v-264h16a24 24 0 0 1 24 24v208a32 32 0 0 1 -32 32z" fill="#787680"/></g><g><path d="m408 48h-16a8 8 0 0 0 -8 8v48h-24v-8a8 8 0 0 0 -8-8h-8v-72a8 8 0 0 0 -8-8h-256a8 8 0 0 0 -8 8v72h-8a8 8 0 0 0 -8 8v64a8 8 0 0 0 8 8h8v80a7.955 7.955 0 0 0 .62 3.08l39.38 94.52v134.4a24.032 24.032 0 0 0 24 24h144a24.032 24.032 0 0 0 24-24v-134.4l39.38-94.52a7.955 7.955 0 0 0 .62-3.08v-80h8a8 8 0 0 0 8-8v-8h24v168a8 8 0 0 0 8 8h8a40.04 40.04 0 0 0 40-40v-208a32.036 32.036 0 0 0 -32-32zm-320-24h240v16h-240zm0 32h240v32h-240zm200 424a8.011 8.011 0 0 1 -8 8h-144a8.011 8.011 0 0 1 -8-8v-8h160zm40-233.6-39.38 94.52a7.955 7.955 0 0 0 -.62 3.08v112h-160v-112a7.955 7.955 0 0 0 -.62-3.08l-39.38-94.52v-78.4h240zm16-94.4h-272v-48h272zm40-16h-24v-16h24zm40 152a24.032 24.032 0 0 1 -24 24v-248h8a16.021 16.021 0 0 1 16 16z"/><path d="m152 112h-64a8 8 0 0 0 0 16h64a8 8 0 0 0 0-16z"/><path d="m192 112h-8a8 8 0 0 0 0 16h8a8 8 0 0 0 0-16z"/></g></g></svg>