<svg height="512" viewBox="0 0 64 64" width="512" xmlns="http://www.w3.org/2000/svg"><path d="m53 13v27a2.006 2.006 0 0 1 -2 2h-46a2.006 2.006 0 0 1 -2-2v-27l2 .96 3 1.44 17.4 8.35a6 6 0 0 0 5.2 0z" fill="#ff9811"/><path d="m53 13v23h-37a8 8 0 0 1 -8-8v-12.6l17.4 8.35a6 6 0 0 0 5.2 0z" fill="#ffa733"/><path d="m53 29.53v10.47a2.006 2.006 0 0 1 -2 2h-19.96c-.03-.33-.04-.66-.04-1a14 14 0 0 1 20-12.65 13.818 13.818 0 0 1 2 1.18z" fill="#ff9811"/><path d="m61 42a14 14 0 1 1 -8-12.65 14 14 0 0 1 8 12.65z" fill="#ffd422"/><path d="m50 55.68a14 14 0 1 1 -.01-27.36 14.008 14.008 0 0 0 .01 27.36z" fill="#ffcd00"/><path d="m30.6 23.75a6 6 0 0 1 -5.2 0l-22.4-10.75v1l24.4 11.75a6 6 0 0 0 5.2 0l20.4-9.79v-2.96z" fill="#ff9811"/><path d="m53 10v3l-10.42 5-11.98 5.75a6 6 0 0 1 -5.2 0l-22.4-10.75v-3a2.006 2.006 0 0 1 2-2h46a2.006 2.006 0 0 1 2 2z" fill="#ffa733"/><path d="m45 47h4v3h-4z" fill="#ed1c24"/><path d="m45.92 36.11a4.983 4.983 0 0 0 -3.81 5.89 4.941 4.941 0 0 0 2.02 3.09 1.961 1.961 0 0 1 .87 1.58v.33h4v-.34a1.89 1.89 0 0 1 .84-1.55 4.909 4.909 0 0 0 2.09-3.34 3.94 3.94 0 0 0 .07-.77 5.015 5.015 0 0 0 -6.08-4.89z" fill="#ff5023"/><path d="m54 28.744v-18.744a3 3 0 0 0 -3-3h-46a3 3 0 0 0 -3 3v30a3 3 0 0 0 3 3h27.051a14.991 14.991 0 1 0 21.949-14.256zm-49-19.744h46a1 1 0 0 1 1 1v2.371l-21.836 10.482a4.985 4.985 0 0 1 -4.328 0l-21.836-10.482v-2.371a1 1 0 0 1 1-1zm-1 31v-25.411l20.971 10.066a6.966 6.966 0 0 0 6.058 0l20.971-10.066v13.286a14.941 14.941 0 0 0 -19.949 13.125h-27.051a1 1 0 0 1 -1-1zm43 15a13 13 0 1 1 13-13 13.015 13.015 0 0 1 -13 13z"/><path d="m10 47h2v2h-2z"/><path d="m14 47h10v2h-10z"/><path d="m8 36v-2h-2v2a3 3 0 0 0 3 3h2v-2h-2a1 1 0 0 1 -1-1z"/><path d="m6 30h2v2h-2z"/><path d="m46 31h2v2h-2z"/><path d="m39.636 33.636h2v2h-2z" transform="matrix(.707 -.707 .707 .707 -12.589 38.879)"/><path d="m37 40h2v2h-2z"/><path d="m52.364 33.636h2v2h-2z" transform="matrix(.707 -.707 .707 .707 -8.861 47.879)"/><path d="m55 40h2v2h-2z"/><path d="m53 41a6 6 0 1 0 -9.446 4.905 1.272 1.272 0 0 1 .11.095h-1.664v2h2v2a1 1 0 0 0 1 1h4a1 1 0 0 0 1-1v-2h2v-2h-1.653c.025-.021.037-.051.065-.07a6 6 0 0 0 2.588-4.93zm-5 8h-2v-1h2zm-2.084-3a2.994 2.994 0 0 0 -1.216-1.731 4 4 0 1 1 4.569.017 2.945 2.945 0 0 0 -1.186 1.714z"/><path d="m49.447 41.895-.894-1.79-1.553.777-1.553-.777-.894 1.79 1.447.723v1.382h2v-1.382z"/></svg>