<svg height="512" viewBox="0 0 54 60" width="512" xmlns="http://www.w3.org/2000/svg"><g id="Page-1" fill="none" fill-rule="evenodd"><g id="008---Mobile-Conversation" fill-rule="nonzero"><rect id="Rectangle-path" fill="#02a9f4" height="58" rx="7" width="36" x="9" y="1"/><path id="Shape" d="m38 1h-3c3.8659932 0 7 3.13400675 7 7v44c0 1.8565154-.7374979 3.6369928-2.0502525 4.9497475-1.3127547 1.3127546-3.0932321 2.0502525-4.9497475 2.0502525h3c1.8565154 0 3.6369928-.7374979 4.9497475-2.0502525 1.3127546-1.3127547 2.0502525-3.0932321 2.0502525-4.9497475v-44c0-3.86599325-3.1340068-7-7-7z" fill="#0377bc"/><path id="Shape" d="m38 1-2.709 4.514c-.1805102.30124508-.5058128.48572243-.857.486h-14.868c-.3511872-.00027757-.6764898-.18475492-.857-.486l-2.709-4.514z" fill="#3f51b5"/><path id="Shape" d="m27 16v12c0 1.6568542-1.3431458 3-3 3h-1.75l.75 6-6.86-6h-12.14c-1.65685425 0-3-1.3431458-3-3v-12c0-1.6568542 1.34314575-3 3-3h20c1.6568542 0 3 1.3431458 3 3z" fill="#e91e63"/><path id="Shape" d="m24 13h-3c1.6568542 0 3 1.3431458 3 3v12c0 1.6568542-1.3431458 3-3 3h-1.75l.382 3.054 3.368 2.946-.75-6h1.75c1.6568542 0 3-1.3431458 3-3v-12c0-1.6568542-1.3431458-3-3-3z" fill="#ad1457"/><path id="Shape" d="m31 31v8c0 1.6568542 1.3431458 3 3 3h1.75l-.75 6 6.86-6h8.14c1.6568542 0 3-1.3431458 3-3v-8c0-1.6568542-1.3431458-3-3-3h-16c-1.6568542 0-3 1.3431458-3 3z" fill="#ffdc00"/><path id="Shape" d="m35.368 45.054-.368 2.946 6.86-6h-3z" fill="#fec108"/><path id="Shape" d="m50 28h-3c1.6568542 0 3 1.3431458 3 3v8c0 1.6568542-1.3431458 3-3 3h3c1.6568542 0 3-1.3431458 3-3v-8c0-1.6568542-1.3431458-3-3-3z" fill="#fec108"/><g fill="#000"><path id="Shape" d="m23 38c-.2419947-.000005-.475778-.0877625-.658-.247l-6.578-5.753h-11.764c-2.209139 0-4-1.790861-4-4v-12c0-2.209139 1.790861-4 4-4h20c2.209139 0 4 1.790861 4 4v12c0 2.209139-1.790861 4-4 4h-.617l.609 4.876c.0355602.2845624-.05276.570697-.2425222.7857099-.1897623.2150129-.4627022.3382092-.7494778.3382901zm-19-24c-1.1045695 0-2 .8954305-2 2v12c0 1.1045695.8954305 2 2 2h12.14c.2419947.000005.475778.0877625.658.247l4.884 4.272-.424-3.395c-.0355602-.2845624.05276-.570697.2425222-.7857099.1897623-.2150129.4627022-.3382092.7494778-.3382901h1.75c1.1045695 0 2-.8954305 2-2v-12c0-1.1045695-.8954305-2-2-2z"/><path id="Shape" d="m7 21h-2c-.55228475 0-1-.4477153-1-1s.44771525-1 1-1h2c.55228475 0 1 .4477153 1 1s-.44771525 1-1 1z"/><path id="Shape" d="m23 21h-12c-.5522847 0-1-.4477153-1-1s.4477153-1 1-1h12c.5522847 0 1 .4477153 1 1s-.4477153 1-1 1z"/><path id="Shape" d="m23 25h-2c-.5522847 0-1-.4477153-1-1s.4477153-1 1-1h2c.5522847 0 1 .4477153 1 1s-.4477153 1-1 1z"/><path id="Shape" d="m17 25h-12c-.55228475 0-1-.4477153-1-1s.44771525-1 1-1h12c.5522847 0 1 .4477153 1 1s-.4477153 1-1 1z"/><path id="Shape" d="m35 49c-.2867756-.0000809-.5597155-.1232772-.7494778-.3382901-.1897622-.2150129-.2780824-.5011475-.2425222-.7857099l.609-4.876h-.617c-2.209139 0-4-1.790861-4-4v-8c0-2.209139 1.790861-4 4-4h16c2.209139 0 4 1.790861 4 4v8c0 2.209139-1.790861 4-4 4h-7.764l-6.578 5.753c-.182222.1592375-.4160053.246995-.658.247zm-1-20c-1.1045695 0-2 .8954305-2 2v8c0 1.1045695.8954305 2 2 2h1.75c.2867756.0000809.5597155.1232772.7494778.3382901.1897622.2150129.2780824.5011475.2425222.7857099l-.424 3.395 4.882-4.272c.1827403-.1596913.4173169-.2474798.66-.247h8.14c1.1045695 0 2-.8954305 2-2v-8c0-1.1045695-.8954305-2-2-2z"/><path id="Shape" d="m49 34h-2c-.5522847 0-1-.4477153-1-1s.4477153-1 1-1h2c.5522847 0 1 .4477153 1 1s-.4477153 1-1 1z"/><path id="Shape" d="m43 34h-8c-.5522847 0-1-.4477153-1-1s.4477153-1 1-1h8c.5522847 0 1 .4477153 1 1s-.4477153 1-1 1z"/><path id="Shape" d="m37 38h-2c-.5522847 0-1-.4477153-1-1s.4477153-1 1-1h2c.5522847 0 1 .4477153 1 1s-.4477153 1-1 1z"/><path id="Shape" d="m49 38h-8c-.5522847 0-1-.4477153-1-1s.4477153-1 1-1h8c.5522847 0 1 .4477153 1 1s-.4477153 1-1 1z"/><path id="Shape" d="m9 10c.55228475 0 1-.44771525 1-1v-1c.0042837-3.09881071 2.3654451-5.68564905 5.451-5.972l2.4 4c.3623472.60162285 1.0126879.97021242 1.715.972h14.868c.7017545-.00192524 1.3515912-.37006494 1.714-.971l2.4-4c3.0855697.28583109 5.4471525 2.87222345 5.452 5.971v16c0 .5522847.4477153 1 1 1s1-.4477153 1-1v-16c-.0049599-4.41622192-3.5837781-7.99504012-8-8h-22c-4.4162219.00495988-7.99504012 3.58377808-8 8v1c0 .55228475.44771525 1 1 1zm25.434-5h-14.868l-1.8-3h18.468z"/><path id="Shape" d="m16 60h22c4.4162219-.0049599 7.9950401-3.5837781 8-8v-6c0-.5522847-.4477153-1-1-1s-1 .4477153-1 1v6c-.0033074 3.3123376-2.6876624 5.9966926-6 6h-22c-3.3123376-.0033074-5.9966926-2.6876624-6-6v-17c0-.5522847-.44771525-1-1-1s-1 .4477153-1 1v17c.00495988 4.4162219 3.5837781 7.9950401 8 8z"/><path id="Shape" d="m17 53c-.5522847 0-1 .4477153-1 1s.4477153 1 1 1h20c.5522847 0 1-.4477153 1-1s-.4477153-1-1-1z"/></g></g></g></svg>