<?xml version="1.0" encoding="UTF-8" standalone="no"?>
<!-- Created with Inkscape (http://www.inkscape.org/) -->

<svg
   xmlns:dc="http://purl.org/dc/elements/1.1/"
   xmlns:cc="http://creativecommons.org/ns#"
   xmlns:rdf="http://www.w3.org/1999/02/22-rdf-syntax-ns#"
   xmlns:svg="http://www.w3.org/2000/svg"
   xmlns="http://www.w3.org/2000/svg"
   xmlns:sodipodi="http://sodipodi.sourceforge.net/DTD/sodipodi-0.dtd"
   xmlns:inkscape="http://www.inkscape.org/namespaces/inkscape"
   width="31mm"
   height="45.000298mm"
   viewBox="0 0 31 45.000298"
   version="1.1"
   id="svg8"
   inkscape:version="0.92.4 (5da689c313, 2019-01-14)"
   sodipodi:docname="satisfied.svg">
  <defs
     id="defs2" />
  <sodipodi:namedview
     id="base"
     pagecolor="#ffffff"
     bordercolor="#666666"
     borderopacity="1.0"
     inkscape:pageopacity="0.0"
     inkscape:pageshadow="2"
     inkscape:zoom="0.5"
     inkscape:cx="-186.55076"
     inkscape:cy="34.009852"
     inkscape:document-units="mm"
     inkscape:current-layer="layer1"
     showgrid="false"
     inkscape:snap-smooth-nodes="true"
     inkscape:object-nodes="false"
     inkscape:window-width="1182"
     inkscape:window-height="696"
     inkscape:window-x="175"
     inkscape:window-y="0"
     inkscape:window-maximized="0"
     fit-margin-top="0"
     fit-margin-left="0"
     fit-margin-right="0"
     fit-margin-bottom="0" />
  <metadata
     id="metadata5">
    <rdf:RDF>
      <cc:Work
         rdf:about="">
        <dc:format>image/svg+xml</dc:format>
        <dc:type
           rdf:resource="http://purl.org/dc/dcmitype/StillImage" />
        <dc:title></dc:title>
      </cc:Work>
    </rdf:RDF>
  </metadata>
  <g
     inkscape:label="Layer 1"
     inkscape:groupmode="layer"
     id="layer1"
     transform="translate(-62.217138,-117.50343)">
    <path
       style="opacity:1;fill:#ffda2d;fill-opacity:1;fill-rule:nonzero;stroke:none;stroke-width:1.75665855;stroke-miterlimit:4;stroke-dasharray:none;stroke-opacity:1"
       d="m 80.465444,117.50373 c -1.119499,0.002 -2.661461,0.39051 -4.70193,1.26304 -3.166134,-0.45301 -5.069829,-0.2046 -6.009002,0.52034 -1.103844,0.44411 -2.269012,1.95196 -3.446405,4.89059 -2.563108,1.89135 -3.731441,3.39663 -3.876549,4.56528 -0.462538,1.08511 -0.20708,2.96524 1.063724,5.8654 -0.458559,3.12769 -0.207252,5.00834 0.526607,5.9361 0.449614,1.09042 1.975903,2.24139 4.950532,3.40446 1.914412,2.53177 3.438271,3.68611 4.621231,3.82963 1.098408,0.45705 3.001712,0.20464 5.937685,-1.05081 3.166145,0.45299 5.069869,0.20461 6.009002,-0.52034 1.103796,-0.44419 2.268948,-1.952 3.446282,-4.89047 2.563103,-1.89135 3.731567,-3.39675 3.876674,-4.56541 0.462539,-1.08511 0.207078,-2.96523 -1.063724,-5.86539 0.458516,-3.12742 0.207223,-5.00789 -0.526483,-5.93572 -0.449468,-1.09047 -1.975942,-2.24171 -4.950658,-3.40484 -1.914368,-2.53174 -3.43815,-3.68581 -4.621106,-3.82939 -0.284174,-0.11829 -0.621607,-0.18961 -1.017556,-0.20777 -0.0709,-0.003 -0.143691,-0.005 -0.218324,-0.005 z m -3.004501,3.61088 a 11.77704,11.634146 0 0 1 0.833386,0.0161 11.77704,11.634146 0 0 1 11.1123,12.2557 11.77704,11.634146 0 0 1 -12.406233,10.97747 11.77704,11.634146 0 0 1 -11.112299,-12.25571 11.77704,11.634146 0 0 1 11.572846,-10.99353 z m 5.234166,5.85551 c -0.391012,0.009 -0.756146,0.16021 -1.007046,0.50872 -1.826825,2.53746 -5.519804,7.06626 -5.519804,7.06626 0,0 -0.981827,-1.26448 -2.052629,-2.56055 -1.724802,-2.08767 -4.032773,0.38688 -3.248849,1.5321 1.590332,2.3233 1.190039,1.79363 2.717363,3.93532 1.589563,2.22895 3.291958,1.63091 4.639496,-0.0401 1.55192,-1.92439 4.027553,-4.95355 6.307526,-8.16727 0.743371,-1.0478 -0.663015,-2.30135 -1.836057,-2.27453 z m 7.17995,17.89084 -1.261156,0.29935 c -1.909826,2.18426 -3.40139,3.16044 -4.533149,3.23613 -0.729216,0.25809 -1.783744,0.19624 -3.216947,-0.26475 l -1.606845,5.30834 1.937274,7.96 c 0.07856,0.34143 0.365058,0.30312 0.568521,-0.0479 l 3.859157,-7.67064 7.141164,5.05991 c 0.162377,0.1506 0.508935,0.17756 0.446659,-0.17983 z m -22.056319,0.4353 -4.086616,13.50033 c -0.08193,0.35348 0.265697,0.3453 0.436149,0.20368 l 7.410159,-4.66737 3.429515,7.86741 c 0.183766,0.36154 0.467585,0.41518 0.564892,0.0785 l 4.082113,-13.4861 -1.181581,-0.34904 c -2.445213,0.94377 -4.078918,1.10522 -5.064262,0.69522 -1.125895,-0.13659 -2.561177,-1.19156 -4.347481,-3.47554 z"
       id="path4537"
       inkscape:connector-curvature="0" />
  </g>
</svg>
